<svg width="20" height="20" viewBox="0 0 20 20" fill="none" xmlns="http://www.w3.org/2000/svg">
<path fill-rule="evenodd" clip-rule="evenodd" d="M18.1239 9.99986C18.1239 14.4863 14.4874 18.1237 10 18.1237C5.5136 18.1237 1.87613 14.4863 1.87613 9.99986C1.87613 5.51243 5.5136 1.87598 10 1.87598C14.4874 1.87598 18.1239 5.51243 18.1239 9.99986Z" fill="#C9CCDE"/>
<path fill-rule="evenodd" clip-rule="evenodd" d="M12.2291 13.1869C12.4935 13.4512 12.9221 13.4512 13.1865 13.1869C13.4509 12.9225 13.4509 12.4938 13.1865 12.2294L10.9574 10.0004L13.1869 7.77096C13.4512 7.50658 13.4512 7.07793 13.1869 6.81355C12.9225 6.54917 12.4938 6.54917 12.2294 6.81355L10 9.04298L7.77056 6.81352C7.50618 6.54914 7.07754 6.54914 6.81315 6.81352C6.54877 7.0779 6.54877 7.50655 6.81315 7.77093L9.04261 10.0004L6.81352 12.2295C6.54914 12.4939 6.54914 12.9225 6.81352 13.1869C7.07791 13.4513 7.50655 13.4513 7.77093 13.1869L10 10.9578L12.2291 13.1869Z" fill="white"/>
</svg>
